<svg width="204" height="58" viewBox="0 0 204 58" fill="none" xmlns="http://www.w3.org/2000/svg">
<path d="M4.40218 54.4849C1.88218 52.6929 0.594181 50.1729 0.538181 46.8129H8.37818C8.43418 48.3809 9.05018 49.6129 10.2262 50.3969C11.4022 51.2369 13.0822 51.6289 15.2662 51.6289C16.9462 51.6289 18.2902 51.3489 19.2982 50.7889C20.2502 50.2289 20.7542 49.3889 20.7542 48.3249C20.7542 47.5969 20.4182 46.9809 19.8582 46.4769C19.2982 46.0289 18.2902 45.6369 16.8342 45.3009L10.2262 43.9009C7.31418 43.3409 5.07418 42.3889 3.50618 40.9329C1.93818 39.4769 1.15418 37.6849 1.15418 35.4449C1.15418 32.7569 2.33018 30.6289 4.68218 28.9489C7.03418 27.3249 10.1702 26.4849 14.2022 26.4849C18.6262 26.4849 22.0422 27.4369 24.5062 29.2289C26.9142 31.0769 28.1462 33.6529 28.1462 36.9569H20.6422C20.6422 35.3889 20.0822 34.2129 19.0182 33.3169C17.9542 32.4769 16.4982 32.0289 14.5942 32.0289C12.8022 32.0289 11.4582 32.3089 10.4502 32.8689C9.44218 33.4289 8.99418 34.2129 8.99418 35.2209C8.99418 36.0049 9.27418 36.6209 9.94618 37.1249C10.5622 37.6849 11.4582 38.0769 12.6902 38.3009L19.8582 39.8689C22.7702 40.5409 25.0102 41.4929 26.4662 42.8369C27.9222 44.1809 28.6502 45.9169 28.6502 48.0449C28.6502 50.9569 27.4742 53.2529 25.1222 54.8209C22.7702 56.3889 19.4102 57.1729 15.0982 57.1729C10.4502 57.1729 6.86618 56.2769 4.40218 54.4849ZM32.1362 56.2769V17.0769H39.9202V30.1809C39.9202 33.5409 39.8642 36.8449 39.7522 40.2049L40.0322 40.3169C40.9282 38.9729 41.8242 37.8529 42.7202 36.8449C43.6162 35.8929 44.7922 34.6609 46.2482 33.2049L47.0322 32.4209L52.2962 27.3809H61.5362L55.7122 33.0369C53.3042 35.4449 51.0642 37.5169 48.9922 39.1969V39.4769L49.8882 39.5329C51.7922 39.5889 53.3602 40.0929 54.5922 41.1009C55.7682 42.1089 56.7202 43.6209 57.5042 45.5249L61.5362 56.2769H53.4162L50.9522 49.5009C50.3922 47.9889 49.6642 46.8689 48.8802 46.0849C48.0962 45.3569 47.0322 44.9649 45.6882 44.9649H43.5602L39.9202 48.4929V56.2769H32.1362ZM65.6911 22.1729C64.7951 21.2769 64.3471 20.2129 64.3471 18.9249C64.3471 17.6929 64.7951 16.5729 65.6911 15.6769C66.5871 14.7809 67.7071 14.2769 68.9951 14.2769C70.2831 14.2769 71.4031 14.7249 72.2991 15.6209C73.1951 16.5169 73.6991 17.6369 73.6991 18.9249C73.6991 20.2129 73.1951 21.2769 72.2991 22.1729C71.4031 23.0689 70.2831 23.5169 68.9951 23.5169C67.7071 23.5169 66.5871 23.0689 65.6911 22.1729ZM65.0751 56.2769V27.3809H73.0271V56.2769H65.0751ZM80.2647 56.2769V0.276882H91.6247V56.2769H80.2647ZM99.4054 56.2769V0.276882H110.765V56.2769H99.4054ZM145.842 43.4529H123.778C123.778 45.8609 124.562 47.7649 126.018 49.1089C127.474 50.5089 129.322 51.1809 131.618 51.1809C133.41 51.1809 134.922 50.7329 136.154 49.8369C137.386 48.9409 138.226 47.7089 138.618 46.2529H145.562C145.226 48.6049 144.386 50.6209 142.986 52.2449C141.53 53.9249 139.85 55.1569 137.834 55.9409C135.818 56.7809 133.746 57.1729 131.618 57.1729C126.802 57.1729 123.05 55.8289 120.306 53.1409C117.506 50.4529 116.162 46.6449 116.162 41.7169C116.162 38.6929 116.778 36.0609 118.01 33.7089C119.242 31.4129 120.978 29.6209 123.218 28.3889C125.458 27.1569 128.09 26.4849 131.114 26.4849C134.082 26.4849 136.714 27.1569 138.954 28.4449C141.194 29.7889 142.874 31.5249 144.05 33.7649C145.226 36.0049 145.842 38.4689 145.842 41.1569V43.4529ZM125.962 34.2129C124.618 35.3889 123.89 37.0129 123.778 39.1409H138.002C137.834 37.0689 137.106 35.4449 135.818 34.2689C134.53 33.0929 132.906 32.4769 130.946 32.4769C128.93 32.4769 127.25 33.0929 125.962 34.2129ZM151.606 43.0049C153.51 41.5489 156.478 40.8209 160.398 40.8209C163.982 40.8769 166.446 40.5969 167.902 39.9249C169.302 39.3089 170.03 38.2449 170.03 36.7889C170.03 35.6689 169.526 34.6609 168.574 33.7649C167.566 32.9249 166.054 32.4769 163.982 32.4769C161.798 32.4769 160.118 33.0929 158.942 34.2129C157.71 35.3889 157.038 36.9569 156.87 38.8609H148.974C149.086 36.6209 149.702 34.5489 150.822 32.6449C151.942 30.7969 153.622 29.2849 155.862 28.1649C158.046 27.0449 160.734 26.4849 163.926 26.4849C168.574 26.4849 172.046 27.5489 174.398 29.6769C176.694 31.8049 177.87 34.4929 177.87 37.7969V56.2769H170.254L170.03 47.2609H169.75C169.358 50.4529 168.182 52.9169 166.166 54.5969C164.15 56.3329 161.574 57.1729 158.494 57.1729C155.582 57.1729 153.174 56.5009 151.382 55.1569C149.59 53.8129 148.694 51.7969 148.694 49.1649C148.694 46.5889 149.646 44.5169 151.606 43.0049ZM157.878 51.0689C158.662 51.6849 159.782 51.9649 161.238 51.9649C162.806 51.9649 164.262 51.6289 165.606 50.8449C166.95 50.1169 168.014 49.1089 168.798 47.8769C169.582 46.6449 170.03 45.3569 170.03 43.9569V39.5329H169.75C169.526 40.7649 169.134 41.7729 168.574 42.5009C168.014 43.2849 167.062 43.8449 165.83 44.2369C164.598 44.6849 162.862 44.9649 160.622 45.0769C159.39 45.1889 158.438 45.5249 157.766 46.0849C157.094 46.7009 156.758 47.4849 156.758 48.4929C156.758 49.6129 157.094 50.4529 157.878 51.0689ZM191.526 38.4689C191.974 35.5569 192.59 33.2609 193.486 31.5809C194.326 29.9569 195.558 28.7809 197.182 27.9969C198.806 27.2689 201.046 26.8769 203.902 26.8769V33.5969C200.766 33.8209 198.302 34.2129 196.566 34.8849C194.774 35.5569 193.486 36.6209 192.646 38.0769C191.75 39.5329 191.302 41.6609 191.19 44.3489V56.2769H183.238V27.3809H190.966L191.19 38.4689H191.526Z" fill="url(#paint0_linear_54_11)"/>
<defs>
<linearGradient id="paint0_linear_54_11" x1="102.698" y1="7.85729" x2="102.698" y2="175.847" gradientUnits="userSpaceOnUse">
<stop stop-color="#2CD569"/>
<stop offset="1" stop-color="#176F37"/>
</linearGradient>
</defs>
</svg>
